<svg xmlns="http://www.w3.org/2000/svg" viewBox="0 0 299.91 363.13"><g id="Layer_2" data-name="Layer 2"><g id="Icons"><path d="M284,196.14a46,46,0,0,0-64.2-.89l-2,1.84v12l8-7.48h0a37.31,37.31,0,0,1,52.05.72,9.62,9.62,0,0,1,1.31,1.64,41.73,41.73,0,0,1,10.24,4.91A18.13,18.13,0,0,0,284,196.14Z" style="fill:#ff30d6"/><path d="M177.8,25.88a29.4,29.4,0,0,0-15.74,4.56A29.21,29.21,0,0,1,166,38.31a20.51,20.51,0,0,1,29.73,7,23.79,23.79,0,0,1,10.8,4.11C203.46,35.76,191.94,25.88,177.8,25.88Z" style="fill:#ff30d6"/><path d="M125.75,0A31.24,31.24,0,0,0,99.33,14.59a29.64,29.64,0,0,0-55.18,15V52.39a26.37,26.37,0,0,0-17.7-6.81C11.62,45.58,0,57.59,0,72.92V254.09a98.74,98.74,0,0,0,54,88.15A94.75,94.75,0,0,1,29.35,311.5a89.87,89.87,0,0,1-20.6-57.41V72.92c0-9,6.2-18.59,17.7-18.59A17.72,17.72,0,0,1,42.62,64.87,21.93,21.93,0,0,1,52.9,68.11V29.56A20.83,20.83,0,0,1,73.7,8.75a20.57,20.57,0,0,1,15,6.17A20.33,20.33,0,0,1,92,19.47a24.58,24.58,0,0,1,12.28,5.07,22.29,22.29,0,0,1,40.43-5,25.44,25.44,0,0,1,11.18,4.6,33.79,33.79,0,0,0-7.4-14A30.13,30.13,0,0,0,125.75,0Z" style="fill:#ff30d6"/><path d="M207.36,207l10.5-9.87V71.66a27.12,27.12,0,0,0-11.32-22.23,33.4,33.4,0,0,1,.82,7.36Z" style="fill:#45e9ff"/><path d="M203,297l75.15-81.54a9.42,9.42,0,0,0,1-11.49,41.81,41.81,0,0,0-41.48,9.33L217.86,232V209.1L206,220.26a4.34,4.34,0,0,1-3,1.19h-51a56.17,56.17,0,0,0-42.52,19.47l-6.62-5.71a64.86,64.86,0,0,1,49.14-22.51h46.67V56.79a23.26,23.26,0,0,0-2.87-11.47,25.65,25.65,0,0,0-3.06-.19,25.19,25.19,0,0,0-25.19,25.19V47.55A29.69,29.69,0,0,0,166,38.31a20.8,20.8,0,0,0-9,17.13v103h-8.75V32.68a24.81,24.81,0,0,0-3.53-13.12,27.19,27.19,0,0,0-4.08-.31,26.87,26.87,0,0,0-26.87,26.86v-1.6a25.21,25.21,0,0,0-9.48-20,22.51,22.51,0,0,0-1,6.7V158.43H94.51V29.64A21.54,21.54,0,0,0,92,19.47a27.29,27.29,0,0,0-3.42-.22A25.18,25.18,0,0,0,63.4,44.44V86.9A22.07,22.07,0,0,0,52.9,68.11v90.32H44.15V72a17.64,17.64,0,0,0-1.53-7.16c-.43,0-.86,0-1.3,0-13.24,0-22.07,10.84-22.07,23V269a94.23,94.23,0,0,0,10.1,42.53,88.34,88.34,0,0,0,68.26,32.38C142.44,343.88,173,330.3,203,297Z" style="fill:#45e9ff"/><path d="M295.82,214.12h0a41.48,41.48,0,0,0-6.4-5.23,18.17,18.17,0,0,1-4.83,12.51l-75.12,81.51c-15.41,17.08-30.41,28.74-47.16,36.67-18.53,8.78-39.7,13.05-64.7,13.05A96.3,96.3,0,0,1,54,342.24a92.09,92.09,0,0,0,58.46,20.89c50.45,0,80.9-17.56,108.64-48.31l75.13-81.51A13.82,13.82,0,0,0,295.82,214.12Z" style="fill:#45e9ff"/><path d="M157,34.47a29.93,29.93,0,0,1,5.07-4,27.24,27.24,0,0,0-6.17-6.28,33.92,33.92,0,0,1,1.1,8.52Z" style="fill:#45e9ff"/><path d="M94.51,158.43h8.75V31.24a22.51,22.51,0,0,1,1-6.7A24.58,24.58,0,0,0,92,19.47a21.54,21.54,0,0,1,2.51,10.17Z" style="fill:#452cd6"/><path d="M44.15,158.43H52.9V68.11a21.93,21.93,0,0,0-10.28-3.24A17.64,17.64,0,0,1,44.15,72Z" style="fill:#452cd6"/><path d="M148.24,158.43H157v-103a20.8,20.8,0,0,1,9-17.13,29.21,29.21,0,0,0-3.95-7.87,29.93,29.93,0,0,0-5.07,4V32.68a33.92,33.92,0,0,0-1.1-8.52,25.44,25.44,0,0,0-11.18-4.6,24.81,24.81,0,0,1,3.53,13.12Z" style="fill:#452cd6"/><path d="M279.18,204a9.42,9.42,0,0,1-1,11.49L203,297c-30,33.29-60.56,46.87-105.39,46.87A88.34,88.34,0,0,1,29.35,311.5,94.75,94.75,0,0,0,54,342.24a96.3,96.3,0,0,0,43.59,10.39c25,0,46.17-4.27,64.7-13.05,16.75-7.93,31.75-19.59,47.16-36.67l75.12-81.51a18.17,18.17,0,0,0,4.83-12.51A41.73,41.73,0,0,0,279.18,204Z" style="fill:#452cd6"/><path d="M109.42,240.92a56.17,56.17,0,0,1,42.52-19.47h51a4.34,4.34,0,0,0,3-1.19l11.88-11.16v-12L207.36,207V56.79a33.4,33.4,0,0,0-.82-7.36,23.79,23.79,0,0,0-10.8-4.11,23.26,23.26,0,0,1,2.87,11.47V212.7H151.94a64.86,64.86,0,0,0-49.14,22.51Z" style="fill:#452cd6"/></g></g></svg>