<svg xmlns="http://www.w3.org/2000/svg" viewBox="0 0 271.25 290.63"><g id="Layer_2" data-name="Layer 2"><g id="Icons"><path d="M8.75,165.47V132.86a33.43,33.43,0,0,0,6.13,5.25V126.59a24.45,24.45,0,0,1-6.13-16.2V72.54A24.53,24.53,0,0,1,49.54,54.15,33,33,0,0,1,66.6,59.7V35.16A26.39,26.39,0,0,1,110,15a35,35,0,0,1,21,8.62A26.72,26.72,0,0,1,172,15a35.37,35.37,0,0,1,20.71,8.37,22,22,0,0,1,34.93-6.07,30.59,30.59,0,0,1,12.65,2.88,30.76,30.76,0,0,0-54.58-2.26,35.5,35.5,0,0,0-61.87.44,35.16,35.16,0,0,0-66,16.85v14.9A33.29,33.29,0,0,0,0,72.54v92.93a110.14,110.14,0,0,0,40.13,85,110.21,110.21,0,0,1-21.35-41A101,101,0,0,1,8.75,165.47Z" style="fill:#ff30d6"/><path d="M267.62,139.11a57,57,0,0,0-9.53-16.43V48a30.8,30.8,0,0,0-17.77-27.88,30.45,30.45,0,0,1,2.9,13V107.8a57.38,57.38,0,0,1,9.52,16.43,56.72,56.72,0,0,1,3.63,20h0v0h0v0A131.58,131.58,0,0,1,124.93,275.75H110.29A109.77,109.77,0,0,1,40.13,250.5a110.14,110.14,0,0,0,85,40.13H139.8c72.48,0,131.45-59,131.45-131.45v0h0v0h0A56.9,56.9,0,0,0,267.62,139.11Z" style="fill:#45e9ff"/><path d="M14.88,87.41v39.18a24.53,24.53,0,0,0,43-16.2V72.54a24.49,24.49,0,0,0-8.31-18.39c-.45,0-.91,0-1.36,0A33.33,33.33,0,0,0,14.88,87.41Z" style="fill:#45e9ff"/><path d="M18.78,209.46A101.67,101.67,0,0,0,110.29,267h14.64A122.83,122.83,0,0,0,247.62,144.31v0h0v0h0v0h0a48.45,48.45,0,0,0-48.46-48.32H72.57a6,6,0,0,0-6,6v6.47a41.53,41.53,0,0,0,41.49,41.49h62.8v8.75h-.71a46.64,46.64,0,0,0-46.59,46.59v15.07h-8.75V205.11a55.33,55.33,0,0,1,25.5-46.59H108.09a50.31,50.31,0,0,1-46.34-30.84,33.25,33.25,0,0,1-46.87,10.43v42.23A110.14,110.14,0,0,0,18.78,209.46Z" style="fill:#45e9ff"/><path d="M200.61,32.75a35.74,35.74,0,0,0-7.87-9.43,21.87,21.87,0,0,0-2.31,9.81v54h8.73a57,57,0,0,1,35.31,12.22V33.13a22,22,0,0,0-6.8-15.88h-.35A30.79,30.79,0,0,0,200.61,32.75Z" style="fill:#45e9ff"/><path d="M138.75,33.19A35.44,35.44,0,0,0,131,23.57a26.73,26.73,0,0,0-2.81,11.93V87.09h53.5V35.5A26.71,26.71,0,0,0,172,15c-.74,0-1.48-.07-2.23-.07A35.52,35.52,0,0,0,138.75,33.19Z" style="fill:#45e9ff"/><path d="M72.72,50v14.9A32.61,32.61,0,0,0,66.6,59.7V72.54h0V88.35a14.71,14.71,0,0,1,6-1.26h46.86V35.16A26.38,26.38,0,0,0,110,15c-.7,0-1.4-.07-2.1-.07A35.2,35.2,0,0,0,72.72,50Z" style="fill:#45e9ff"/><path d="M124.93,275.75A131.58,131.58,0,0,0,256.37,144.31v0h0v0h0a56.72,56.72,0,0,0-3.63-20,57.38,57.38,0,0,0-9.52-16.43V33.13a30.45,30.45,0,0,0-2.9-13,30.59,30.59,0,0,0-12.65-2.88,22,22,0,0,1,6.8,15.88V99.31a57,57,0,0,0-35.31-12.22h-8.73v-54a21.87,21.87,0,0,1,2.31-9.81A35.37,35.37,0,0,0,172,15a26.71,26.71,0,0,1,9.65,20.55V87.09h-53.5V35.5A26.73,26.73,0,0,1,131,23.57,35,35,0,0,0,110,15a26.38,26.38,0,0,1,9.44,20.21V87.09H72.57a14.71,14.71,0,0,0-6,1.26V72.54h0V59.7a33,33,0,0,0-17.06-5.55,24.49,24.49,0,0,1,8.31,18.39v37.85a24.53,24.53,0,0,1-43,16.2v11.52a33.25,33.25,0,0,0,46.87-10.43,50.31,50.31,0,0,0,46.34,30.84h32.25a55.33,55.33,0,0,0-25.5,46.59v15.07h8.75V205.11a46.64,46.64,0,0,1,46.59-46.59h.71v-8.75h-62.8A41.53,41.53,0,0,1,66.6,108.28v-6.47a6,6,0,0,1,6-6H199.16a48.45,48.45,0,0,1,48.46,48.32h0v0h0v0h0v0A122.83,122.83,0,0,1,124.93,267H110.29a101.67,101.67,0,0,1-91.51-57.54,110.21,110.21,0,0,0,21.35,41,109.77,109.77,0,0,0,70.16,25.25Z" style="fill:#452cd6"/></g></g></svg>