<svg xmlns="http://www.w3.org/2000/svg" viewBox="0 0 249.16 381.5"><g id="Layer_2" data-name="Layer 2"><g id="Icons"><path d="M243.15,26.76a29.74,29.74,0,0,0-11.52-9.24A29.66,29.66,0,0,1,234,34c-5.59,41.75-9.83,71.57-12.93,93.34-9.36,65.81-9.36,65.81-9.36,130.6h0c0,31.46-11.89,59.94-33.49,80.19a106.35,106.35,0,0,1-72.54,28.52q-3.42,0-6.86-.23a102.18,102.18,0,0,1-58.5-23.27q1.36,1.67,2.81,3.29c18.49,20.73,43.55,33.11,70.57,34.86q3.44.23,6.85.22A106.32,106.32,0,0,0,193.08,353c21.6-20.24,33.5-48.72,33.5-80.18h0c0-64.78,0-64.78,9.36-130.59,3.09-21.77,7.33-51.59,12.93-93.34A29.6,29.6,0,0,0,243.15,26.76Z" style="fill:#45e9ff"/><path d="M112,142.61A31.19,31.19,0,0,1,117,159.5v41.24h37.54A57.21,57.21,0,0,1,203,227.64c.26-37.37,1.68-47.35,9.39-101.55,3.09-21.76,7.33-51.56,12.92-93.3a21,21,0,0,0-6.06-17.91,29.83,29.83,0,0,0-29.45,25.65L173.86,150l-4.1-28.16-6.45,44.27a4.38,4.38,0,0,1-8.66,0L134.45,27.33a20.93,20.93,0,0,0-6-12,29.79,29.79,0,0,0-29.47,34Z" style="fill:#45e9ff"/><path d="M31.43,239.66a22.71,22.71,0,0,0,22.5-19.81v-.74a19,19,0,0,1,.18-2.63V183.93a22.6,22.6,0,0,0-7.18-16.54l-.62,0a31.48,31.48,0,0,0-31.44,31.44v33.64A22.65,22.65,0,0,0,31.43,239.66Z" style="fill:#45e9ff"/><path d="M172.22,331.72C192,313.15,203,286.94,203,257.92a48.49,48.49,0,0,0-48.43-48.43H72.3a9.64,9.64,0,0,0-9.44,7.73,30.07,30.07,0,0,1-.16,3,34.47,34.47,0,0,0,34.41,33.31h41.5v8.75a40.84,40.84,0,0,0-40.79,40.79v13.36H89.07V303.09a49.5,49.5,0,0,1,21.46-40.79H97.11A43.26,43.26,0,0,1,57,235.19a31.38,31.38,0,0,1-42.16,8.49v28.5a112,112,0,0,0,4,29.66,102.21,102.21,0,0,0,15.91,23.88c16.95,19,39.89,30.35,64.6,31.95A97.58,97.58,0,0,0,172.22,331.72Z" style="fill:#45e9ff"/><path d="M159,135.09l6.36-43.63L158,41a29.83,29.83,0,0,0-17.23-23,30.06,30.06,0,0,1,2.36,8.13Z" style="fill:#45e9ff"/><path d="M108.23,200.74V159.5A22.65,22.65,0,0,0,101,143h-.62A31.47,31.47,0,0,0,69,174.37v2.69a32.19,32.19,0,0,0-6.12-5v11.83a.49.49,0,0,1,0,.12v19.3a18.25,18.25,0,0,1,9.44-2.61Z" style="fill:#45e9ff"/><path d="M231.63,17.52a30.82,30.82,0,0,0-3.35-5.64,29.82,29.82,0,0,0-53.35,13.78l-9.59,65.8L159,135.09l-15.86-109A29.85,29.85,0,0,0,109.43.7,29.84,29.84,0,0,0,84.05,34.39l13.5,96.06a31.29,31.29,0,0,0-11.91-2.39h-.09A31.48,31.48,0,0,0,54.11,159.5v2.69A31.42,31.42,0,0,0,0,183.93v73.38a111.33,111.33,0,0,0,28.25,74.23,107,107,0,0,0,12.06,11.59,102.18,102.18,0,0,0,58.5,23.27q3.43.23,6.86.23a106.35,106.35,0,0,0,72.54-28.52c21.6-20.25,33.49-48.73,33.49-80.19h0c0-64.79,0-64.79,9.36-130.6C224.16,105.55,228.4,75.73,234,34A29.66,29.66,0,0,0,231.63,17.52ZM62.87,159.5a22.71,22.71,0,0,1,22.68-22.69h.06A22.78,22.78,0,0,1,97.21,140,23.71,23.71,0,0,1,101,143a22.65,22.65,0,0,1,7.19,16.55v41.24H72.3a18.25,18.25,0,0,0-9.44,2.61v-19.3a.49.49,0,0,0,0-.12V159.5ZM8.75,183.93a22.68,22.68,0,0,1,45.36,0v32.55a19,19,0,0,0-.18,2.63v.74A22.68,22.68,0,0,1,8.75,217ZM172.22,331.72a97.58,97.58,0,0,1-72.84,25.95c-24.71-1.6-47.65-12.95-64.6-31.95a102.73,102.73,0,0,1-26-68.41v-18.6a31.86,31.86,0,0,0,6.12,5A31.38,31.38,0,0,0,57,235.19,43.26,43.26,0,0,0,97.11,262.3h13.42a49.5,49.5,0,0,0-21.46,40.79v13.36h8.75V303.09a40.84,40.84,0,0,1,40.79-40.79v-8.75H97.11A34.47,34.47,0,0,1,62.7,220.24a30.07,30.07,0,0,0,.16-3,9.64,9.64,0,0,1,9.44-7.73h82.22A48.49,48.49,0,0,1,203,257.92C203,286.94,192,313.15,172.22,331.72Zm53.1-298.93c-5.59,41.74-9.83,71.54-12.92,93.3-7.71,54.2-9.13,64.18-9.39,101.55a57.21,57.21,0,0,0-48.49-26.9H117V159.5a31.48,31.48,0,0,0-9.7-22.69L92.71,33.17a21.07,21.07,0,0,1,41.74-5.84l20.2,138.75a4.38,4.38,0,0,0,8.66,0l6.45-44.27L183.59,26.9a21.07,21.07,0,0,1,41.73,5.89Z" style="fill:#ff30d6"/><path d="M154.65,166.08a4.38,4.38,0,0,0,8.66,0l6.45-44.27-4.42-30.35L159,135.09l-15.86-109A30.06,30.06,0,0,0,140.76,18,29.51,29.51,0,0,0,128.4,15.3a20.93,20.93,0,0,1,6,12Z" style="fill:#452cd6"/><path d="M231.63,17.52a30,30,0,0,0-12.37-2.64,21,21,0,0,1,6.06,17.91c-5.59,41.74-9.83,71.54-12.92,93.3-7.71,54.2-9.13,64.18-9.39,101.55a57.21,57.21,0,0,0-48.49-26.9H117V159.5A31.19,31.19,0,0,0,112,142.61l.39,2.71A31.36,31.36,0,0,0,101,143a22.65,22.65,0,0,1,7.19,16.55v41.24H72.3a18.25,18.25,0,0,0-9.44,2.61v-19.3a.49.49,0,0,0,0-.12V172.1a31.22,31.22,0,0,0-15.94-4.71,22.6,22.6,0,0,1,7.18,16.54v32.55a19,19,0,0,0-.18,2.63v.74a22.66,22.66,0,0,1-39.06,12.6v11.23A31.38,31.38,0,0,0,57,235.19,43.26,43.26,0,0,0,97.11,262.3h13.42a49.5,49.5,0,0,0-21.46,40.79v13.36h8.75V303.09a40.84,40.84,0,0,1,40.79-40.79v-8.75H97.11A34.47,34.47,0,0,1,62.7,220.24a30.07,30.07,0,0,0,.16-3,9.64,9.64,0,0,1,9.44-7.73h82.22A48.49,48.49,0,0,1,203,257.92c0,29-10.91,55.23-30.73,73.8a97.58,97.58,0,0,1-72.84,25.95c-24.71-1.6-47.65-12.95-64.6-31.95a102.21,102.21,0,0,1-15.91-23.88,111.24,111.24,0,0,0,21.44,41.29,102.18,102.18,0,0,0,58.5,23.27q3.43.23,6.86.23a106.35,106.35,0,0,0,72.54-28.52c21.6-20.25,33.49-48.73,33.49-80.19h0c0-64.79,0-64.79,9.36-130.6C224.16,105.55,228.4,75.73,234,34A29.66,29.66,0,0,0,231.63,17.52Z" style="fill:#452cd6"/></g></g></svg>